<svg width="1200" height="630" viewBox="0 0 1200 630" xmlns="http://www.w3.org/2000/svg">
  <defs>
    <radialGradient id="glow" cx="85%" cy="20%" r="70%">
      <stop offset="0%" stop-color="#e0803a" stop-opacity="0.25"/>
      <stop offset="100%" stop-color="#e0803a" stop-opacity="0"/>
    </radialGradient>
  </defs>
  <rect width="1200" height="630" fill="#0d1117"/>
  <rect width="1200" height="630" fill="url(#glow)"/>
  <rect x="24" y="24" width="1152" height="582" rx="24" fill="none" stroke="#30363d" stroke-width="2"/>

  <text x="80" y="110" font-family="ui-monospace, monospace" font-size="30" fill="#8b949e">$ npx slopscan sloppy</text>
  

  <text x="880" y="380" font-family="ui-monospace, monospace" font-size="340" font-weight="bold" fill="#e0803a">D</text>
  <text x="880" y="440" font-family="ui-monospace, monospace" font-size="28" fill="#8b949e">slop score 51/100</text>

  
    <text x="80" y="250" font-family="ui-monospace, monospace" font-size="26" fill="#8b949e">AI SLOP</text>
    <rect x="280" y="230" width="500" height="16" rx="8" fill="#21262d"/>
    <rect x="280" y="230" width="313" height="16" rx="8" fill="#e0803a"/>
    <text x="800" y="250" font-family="ui-monospace, monospace" font-size="26" fill="#c9d1d9">25/40</text>
  
    <text x="80" y="310" font-family="ui-monospace, monospace" font-size="26" fill="#8b949e">SECURITY</text>
    <rect x="280" y="290" width="500" height="16" rx="8" fill="#21262d"/>
    <rect x="280" y="290" width="75" height="16" rx="8" fill="#e0803a"/>
    <text x="800" y="310" font-family="ui-monospace, monospace" font-size="26" fill="#c9d1d9">6/40</text>
  
    <text x="80" y="370" font-family="ui-monospace, monospace" font-size="26" fill="#8b949e">HYGIENE</text>
    <rect x="280" y="350" width="500" height="16" rx="8" fill="#21262d"/>
    <rect x="280" y="350" width="500" height="16" rx="8" fill="#e0803a"/>
    <text x="800" y="370" font-family="ui-monospace, monospace" font-size="26" fill="#c9d1d9">20/20</text>

  <text x="80" y="440" font-family="ui-monospace, monospace" font-size="24" fill="#c9d1d9">Heavily vibed. Review before you ship.</text>

  <text x="80" y="560" font-family="ui-monospace, monospace" font-size="26" fill="#6e7681">slopscan — how vibed is your repo?</text>
  <text x="1120" y="560" text-anchor="end" font-family="ui-monospace, monospace" font-size="26" fill="#e0803a">github.com/Jaysi88/slopscan</text>
</svg>
